<svg width="50" height="50" viewBox="0 0 50 50" fill="none" xmlns="http://www.w3.org/2000/svg">
<path fill-rule="evenodd" clip-rule="evenodd" d="M25 50C38.8071 50 50 38.8071 50 25C50 11.1929 38.8071 0 25 0C11.1929 0 0 11.1929 0 25C0 38.8071 11.1929 50 25 50Z" fill="white"/>
<path d="M30.4779 16.8873C30.7129 16.8873 30.8838 17.0582 30.8838 17.2932V33.5941C30.8838 33.8291 30.7129 34 30.4779 34H20.5863C20.3513 34 20.1803 33.8291 20.1803 33.5941V17.2932C20.1803 17.0582 20.3513 16.8873 20.5863 16.8873H30.4779ZM28.7474 19.0237H22.3381V29.7058H28.7474V19.0237ZM25.5427 30.774C24.9446 30.774 24.4745 31.244 24.4745 31.8422C24.4745 32.4404 24.9446 32.9104 25.5427 32.9104C26.1409 32.9104 26.611 32.4404 26.611 31.8422C26.611 31.244 26.1409 30.774 25.5427 30.774Z" fill="#FF9F66"/>
</svg>
